# Blender v2.92.0 OBJ File: ''
# www.blender.org
mtllib mirrorglass.mtl
o Cube.002
v 0.021923 -0.162605 0.215489
v 0.019530 -0.161886 0.214038
v 0.113139 -0.190005 0.220372
v 0.018193 -0.161484 0.211379
v 0.018193 -0.161484 0.175433
v 0.117378 -0.191279 0.218215
v 0.119492 -0.191914 0.214099
v 0.119492 -0.191914 0.172085
v 0.019538 -0.161888 0.172744
v 0.021942 -0.162610 0.171273
v 0.113161 -0.190012 0.165884
v 0.117390 -0.191282 0.168020
vt 0.069357 0.905498
vt 0.047133 0.879813
vt 0.916261 0.991918
vt 0.034722 0.832747
vt 0.034722 0.196512
vt 0.955623 0.953738
vt 0.975248 0.880881
vt 0.975248 0.137252
vt 0.047207 0.148906
vt 0.069525 0.122874
vt 0.916466 0.027487
vt 0.955730 0.065304
vn -0.2877 -0.9577 -0.0001
vn -0.2877 -0.9577 0.0001
vn -0.2877 -0.9577 -0.0000
vn -0.2879 -0.9577 0.0001
usemtl Default_OBJ
s 1
f 1/1/1 2/2/1 3/3/2
f 2/2/1 4/4/1 3/3/2
f 4/4/1 5/5/3 3/3/2
f 5/5/3 6/6/3 3/3/2
f 7/7/3 6/6/3 5/5/3
f 8/8/3 7/7/3 5/5/3
f 9/9/3 8/8/3 5/5/3
f 10/10/1 8/8/3 9/9/3
f 11/11/1 8/8/3 10/10/1
f 12/12/4 8/8/3 11/11/1
